TITLE ""
FILE "2Q_t_0718-0734.mp3" MP3
  TRACK 01 AUDIO
    TITLE "2Q_t_0718-0734_01"
    INDEX 01 00:00:00
  TRACK 02 AUDIO
    TITLE "2Q_t_0718-0734_02"
    INDEX 01 00:00:10
  TRACK 03 AUDIO
    TITLE "2Q_t_0718-0734_03"
    INDEX 01 00:01:35
  TRACK 04 AUDIO
    TITLE "2Q_t_0718-0734_04"
    INDEX 01 00:02:05
  TRACK 05 AUDIO
    TITLE "2Q_t_0718-0734_05"
    INDEX 01 00:04:02
  TRACK 06 AUDIO
    TITLE "2Q_t_0718-0734_06"
    INDEX 01 00:04:45
  TRACK 07 AUDIO
    TITLE "2Q_t_0718-0734_07"
    INDEX 01 00:05:51
  TRACK 08 AUDIO
    TITLE "2Q_t_0718-0734_08"
    INDEX 01 00:06:31
  TRACK 09 AUDIO
    TITLE "2Q_t_0718-0734_09"
    INDEX 01 00:10:19
  TRACK 10 AUDIO
    TITLE "2Q_t_0718-0734_10"
    INDEX 01 00:10:60
  TRACK 11 AUDIO
    TITLE "2Q_t_0718-0734_11"
    INDEX 01 00:11:67
  TRACK 12 AUDIO
    TITLE "2Q_t_0718-0734_12"
    INDEX 01 00:12:39
  TRACK 13 AUDIO
    TITLE "2Q_t_0718-0734_13"
    INDEX 01 00:13:52
  TRACK 14 AUDIO
    TITLE "2Q_t_0718-0734_14"
    INDEX 01 00:14:22
  TRACK 15 AUDIO
    TITLE "2Q_t_0718-0734_15"
    INDEX 01 00:15:51
  TRACK 16 AUDIO
    TITLE "2Q_t_0718-0734_16"
    INDEX 01 00:16:25
  TRACK 17 AUDIO
    TITLE "2Q_t_0718-0734_17"
    INDEX 01 00:19:49
  TRACK 18 AUDIO
    TITLE "2Q_t_0718-0734_18"
    INDEX 01 00:20:19
  TRACK 19 AUDIO
    TITLE "2Q_t_0718-0734_19"
    INDEX 01 00:21:16
  TRACK 20 AUDIO
    TITLE "2Q_t_0718-0734_20"
    INDEX 01 00:21:63
  TRACK 21 AUDIO
    TITLE "2Q_t_0718-0734_21"
    INDEX 01 00:24:73
  TRACK 22 AUDIO
    TITLE "2Q_t_0718-0734_22"
    INDEX 01 00:25:42
  TRACK 23 AUDIO
    TITLE "2Q_t_0718-0734_23"
    INDEX 01 00:26:66
  TRACK 24 AUDIO
    TITLE "2Q_t_0718-0734_24"
    INDEX 01 00:27:39
  TRACK 25 AUDIO
    TITLE "2Q_t_0718-0734_25"
    INDEX 01 00:29:04
  TRACK 26 AUDIO
    TITLE "2Q_t_0718-0734_26"
    INDEX 01 00:29:49
  TRACK 27 AUDIO
    TITLE "2Q_t_0718-0734_27"
    INDEX 01 00:30:56
  TRACK 28 AUDIO
    TITLE "2Q_t_0718-0734_28"
    INDEX 01 00:31:27
  TRACK 29 AUDIO
    TITLE "2Q_t_0718-0734_29"
    INDEX 01 00:32:61
  TRACK 30 AUDIO
    TITLE "2Q_t_0718-0734_30"
    INDEX 01 00:33:31
  TRACK 31 AUDIO
    TITLE "2Q_t_0718-0734_31"
    INDEX 01 00:34:46
  TRACK 32 AUDIO
    TITLE "2Q_t_0718-0734_32"
    INDEX 01 00:35:15
  TRACK 33 AUDIO
    TITLE "2Q_t_0718-0734_33"
    INDEX 01 00:36:49
  TRACK 34 AUDIO
    TITLE "2Q_t_0718-0734_34"
    INDEX 01 00:37:21
  TRACK 35 AUDIO
    TITLE "2Q_t_0718-0734_35"
    INDEX 01 00:38:23
  TRACK 36 AUDIO
    TITLE "2Q_t_0718-0734_36"
    INDEX 01 00:39:03
  TRACK 37 AUDIO
    TITLE "2Q_t_0718-0734_37"
    INDEX 01 00:41:50
  TRACK 38 AUDIO
    TITLE "2Q_t_0718-0734_38"
    INDEX 01 00:42:19
  TRACK 39 AUDIO
    TITLE "2Q_t_0718-0734_39"
    INDEX 01 00:43:28
  TRACK 40 AUDIO
    TITLE "2Q_t_0718-0734_40"
    INDEX 01 00:43:73
  TRACK 41 AUDIO
    TITLE "2Q_t_0718-0734_41"
    INDEX 01 00:45:42
  TRACK 42 AUDIO
    TITLE "2Q_t_0718-0734_42"
    INDEX 01 00:46:16
  TRACK 43 AUDIO
    TITLE "2Q_t_0718-0734_43"
    INDEX 01 00:49:13
  TRACK 44 AUDIO
    TITLE "2Q_t_0718-0734_44"
    INDEX 01 00:49:58
  TRACK 45 AUDIO
    TITLE "2Q_t_0718-0734_45"
    INDEX 01 00:50:59
  TRACK 46 AUDIO
    TITLE "2Q_t_0718-0734_46"
    INDEX 01 00:51:39
  TRACK 47 AUDIO
    TITLE "2Q_t_0718-0734_47"
    INDEX 01 00:52:33
  TRACK 48 AUDIO
    TITLE "2Q_t_0718-0734_48"
    INDEX 01 00:53:01
  TRACK 49 AUDIO
    TITLE "2Q_t_0718-0734_49"
    INDEX 01 00:54:08
  TRACK 50 AUDIO
    TITLE "2Q_t_0718-0734_50"
    INDEX 01 00:54:57
  TRACK 51 AUDIO
    TITLE "2Q_t_0718-0734_51"
    INDEX 01 00:55:49
  TRACK 52 AUDIO
    TITLE "2Q_t_0718-0734_52"
    INDEX 01 00:56:21
  TRACK 53 AUDIO
    TITLE "2Q_t_0718-0734_53"
    INDEX 01 00:57:36
  TRACK 54 AUDIO
    TITLE "2Q_t_0718-0734_54"
    INDEX 01 00:58:08
  TRACK 55 AUDIO
    TITLE "2Q_t_0718-0734_55"
    INDEX 01 00:59:27
  TRACK 56 AUDIO
    TITLE "2Q_t_0718-0734_56"
    INDEX 01 00:59:74
  TRACK 57 AUDIO
    TITLE "2Q_t_0718-0734_57"
    INDEX 01 01:01:06
  TRACK 58 AUDIO
    TITLE "2Q_t_0718-0734_58"
    INDEX 01 01:01:51
  TRACK 59 AUDIO
    TITLE "2Q_t_0718-0734_59"
    INDEX 01 01:02:66
  TRACK 60 AUDIO
    TITLE "2Q_t_0718-0734_60"
    INDEX 01 01:03:36
  TRACK 61 AUDIO
    TITLE "2Q_t_0718-0734_61"
    INDEX 01 01:04:40
  TRACK 62 AUDIO
    TITLE "2Q_t_0718-0734_62"
    INDEX 01 01:05:14
  TRACK 63 AUDIO
    TITLE "2Q_t_0718-0734_63"
    INDEX 01 01:07:13
  TRACK 64 AUDIO
    TITLE "2Q_t_0718-0734_64"
    INDEX 01 01:07:58
  TRACK 65 AUDIO
    TITLE "2Q_t_0718-0734_65"
    INDEX 01 01:08:69
  TRACK 66 AUDIO
    TITLE "2Q_t_0718-0734_66"
    INDEX 01 01:09:43
  TRACK 67 AUDIO
    TITLE "2Q_t_0718-0734_67"
    INDEX 01 01:11:57
  TRACK 68 AUDIO
    TITLE "2Q_t_0718-0734_68"
    INDEX 01 01:12:27
  TRACK 69 AUDIO
    TITLE "2Q_t_0718-0734_69"
    INDEX 01 01:13:33
  TRACK 70 AUDIO
    TITLE "2Q_t_0718-0734_70"
    INDEX 01 01:14:09
  TRACK 71 AUDIO
    TITLE "2Q_t_0718-0734_71"
    INDEX 01 01:16:41
